<?xml version="1.0" encoding="UTF-8" standalone="no"?>
<!-- Created with Inkscape (http://www.inkscape.org/) -->

<svg
   width="35.431mm"
   height="10.104mm"
   viewBox="0 0 35.431 10.104"
   version="1.1"
   id="svg1"
   inkscape:version="1.4 (86a8ad7, 2024-10-11)"
   sodipodi:docname="logo.svg"
   xmlns:inkscape="http://www.inkscape.org/namespaces/inkscape"
   xmlns:sodipodi="http://sodipodi.sourceforge.net/DTD/sodipodi-0.dtd"
   xmlns="http://www.w3.org/2000/svg"
   xmlns:svg="http://www.w3.org/2000/svg">
  <sodipodi:namedview
     id="namedview1"
     pagecolor="#ffffff"
     bordercolor="#000000"
     borderopacity="0.25"
     inkscape:showpageshadow="2"
     inkscape:pageopacity="0.0"
     inkscape:pagecheckerboard="0"
     inkscape:deskcolor="#d1d1d1"
     inkscape:document-units="mm"
     inkscape:clip-to-page="true"
     inkscape:zoom="4"
     inkscape:cx="24.125"
     inkscape:cy="18.125"
     inkscape:window-width="1920"
     inkscape:window-height="1137"
     inkscape:window-x="1912"
     inkscape:window-y="-8"
     inkscape:window-maximized="1"
     inkscape:current-layer="layer1" />
  <defs
     id="defs1">
    <rect
       x="136.75"
       y="165"
       width="82.125"
       height="17.625"
       id="rect25" />
  </defs>
  <g
     inkscape:label="Warstwa 1"
     inkscape:groupmode="layer"
     id="layer1"
     transform="translate(-2.2148654,-1.7440143)">
    <text
       xml:space="preserve"
       transform="matrix(0.40883092,0,0,0.55301561,-53.834079,-88.55621)"
       id="text25"
       style="font-style:normal;font-variant:normal;font-weight:normal;font-stretch:normal;font-size:12px;font-family:'Noto Sans';-inkscape-font-specification:'Noto Sans, Normal';font-variant-ligatures:normal;font-variant-caps:normal;font-variant-numeric:normal;font-variant-east-asian:normal;text-align:start;writing-mode:lr-tb;direction:ltr;white-space:pre;shape-inside:url(#rect25);display:inline;fill:#3663de;fill-opacity:0.827338;fill-rule:evenodd;stroke:none;stroke-width:0.245549;stroke-dasharray:none;stroke-opacity:1"><tspan
         x="136.75"
         y="175.9185"
         id="tspan3"><tspan
           style="font-weight:bold"
           id="tspan2">PIĘKNYSOFT</tspan></tspan></text>
    <path
       d="m 35.258543,9.2046639 c -0.174375,0.200695 -0.375214,0.399879 -0.60256,0.5975704 0.06165,-0.00857 0.123319,-0.019021 0.183502,-0.031038 0.164733,-0.034529 0.323197,-0.085069 0.476364,-0.1541478 0.03952,-0.017557 0.07804,-0.036035 0.116071,-0.055053 0.02842,0.03804 0.06022,0.071086 0.09442,0.099093 0.03709,0.030517 0.07661,0.054553 0.117986,0.07257 -0.0761,0.042555 -0.154119,0.081076 -0.234087,0.1171103 -0.170051,0.076081 -0.34487,0.1316159 -0.525012,0.1696562 -0.180132,0.03804 -0.366548,0.05706 -0.558252,0.05706 -0.1917,0 -0.376659,-0.01902 -0.558247,-0.05706 -0.178217,-0.036536 -0.349686,-0.091589 -0.518269,-0.1661448 -0.0014,0 -0.0047,-0.00149 -0.0065,-0.00355 C 33.07719,9.7761702 32.918733,9.6860644 32.770861,9.5839696 32.622495,9.4818663 32.485716,9.3642626 32.360966,9.2341369 32.234286,9.1045066 32.122541,8.9623773 32.024284,8.8082296 31.924099,8.6540819 31.839318,8.4894271 31.767555,8.316763 31.69435,8.1401045 31.640869,7.9584213 31.604274,7.7712433 c -0.03516,-0.1866703 -0.05345,-0.380865 -0.05345,-0.5800552 0,-0.1991901 0.01841,-0.391372 0.05494,-0.5800549 0.03516,-0.1851654 0.08814,-0.3633433 0.159932,-0.5385116 0,-0.00149 0.0014,-0.00501 0.0035,-0.00689 0.07175,-0.1746519 0.158479,-0.3378226 0.256726,-0.4914687 0.09826,-0.1541475 0.211451,-0.2962832 0.336686,-0.4259052 0.124738,-0.1316161 0.261542,-0.2477378 0.409895,-0.3498349 0.148378,-0.1040885 0.306338,-0.1921881 0.472991,-0.2667558 0.17005,-0.076081 0.344873,-0.131616 0.525015,-0.1696564 0.17967,-0.037539 0.366543,-0.056539 0.557766,-0.056539 0.191701,0 0.37666,0.019021 0.558249,0.05706 0.178217,0.036535 0.34969,0.091589 0.518271,0.166145 0.0014,0 0.0049,0.00149 0.0065,0.00355 0.166666,0.074555 0.325125,0.1646611 0.472995,0.2667539 0.148378,0.1021035 0.28515,0.2197089 0.409899,0.3498325 0.126792,0.1296304 0.238425,0.2717598 0.33668,0.4259075 0.100104,0.1541475 0.184889,0.3188023 0.256725,0.4914687 0.07323,0.1766583 0.126598,0.3583415 0.163316,0.5455198 0.02062,0.1060952 0.03556,0.2142055 0.04484,0.3243098 l -0.251919,-0.06956 c -0.0077,-0.069087 -0.01723,-0.1371416 -0.03087,-0.204695 C 36.779646,6.4907025 36.731028,6.3260434 36.664586,6.1668899 36.623141,6.0647864 36.576394,5.9676998 36.52436,5.8741118 v 0 h -0.813003 c 0.144497,0.2567442 0.248549,0.5119897 0.311644,0.7667316 l -0.27361,-0.075558 C 35.678158,6.3370722 35.570745,6.1068539 35.426248,5.8741317 h -0.976332 v 0.4699466 c -0.01754,0.010661 -0.03468,0.023013 -0.05154,0.037037 v 0 c -0.01364,0.010867 -0.02649,0.023013 -0.03855,0.035532 -0.0163,0.017557 -0.03179,0.036035 -0.0448,0.056057 -0.0212,0.032042 -0.03805,0.067574 -0.05105,0.1056146 -0.01311,0.038522 -0.0207,0.077064 -0.0236,0.1146023 -0.0024,0.032042 -0.0014,0.065065 0.0035,0.097589 0.004,0.027026 0.0096,0.053549 0.01841,0.079592 l 0.0024,0.00689 c 0.0018,0.00543 0.004,0.010867 0.0059,0.016094 0.0028,0.00857 0.0053,0.013586 0.0064,0.016094 l 9.69e-4,-4.912e-4 0.174853,0.4088896 h -0.0028 v 1.191136 H 34.9615 l 0.107885,0.2527417 H 34.450477 V 9.6513052 C 34.722618,9.4190825 34.956224,9.1848617 35.150814,8.950135 Z m 1.838026,0.00397 c -0.01719,0.01693 -0.03558,0.030014 -0.05582,0.039546 -0.0212,0.010035 -0.04389,0.016094 -0.06644,0.017975 -0.0246,0.00208 -0.04958,-4.932e-4 -0.07361,-0.00857 -0.02308,-0.00752 -0.04522,-0.020065 -0.06511,-0.037038 L 36.301432,8.7495967 36.117875,9.217541 c -0.01506,0.039043 -0.03366,0.075078 -0.05449,0.1076008 -0.0212,0.033045 -0.04484,0.061575 -0.06944,0.084066 -0.01968,0.017975 -0.04145,0.033525 -0.06404,0.045042 -0.02263,0.011496 -0.04576,0.019021 -0.06986,0.022532 -0.02793,0.00397 -0.05585,0.00208 -0.08286,-0.00606 -0.02599,-0.00795 -0.05105,-0.021028 -0.07512,-0.040549 -0.01928,-0.015467 -0.03709,-0.035532 -0.05394,-0.059547 -0.01542,-0.022009 -0.02938,-0.048052 -0.04237,-0.078068 -0.347762,-0.8142758 -0.762476,-1.6906121 -1.072667,-2.5103954 -0.004,-0.010867 -0.0065,-0.022009 -0.0083,-0.033525 -0.0014,-0.011496 -0.0018,-0.023012 -9.63e-4,-0.034528 9.63e-4,-0.013586 0.004,-0.026524 0.0083,-0.039546 0.0044,-0.012541 0.01017,-0.025019 0.01755,-0.036035 0.004,-0.00543 0.0077,-0.010867 0.01258,-0.015467 0.004,-0.00397 0.0083,-0.00795 0.01311,-0.011496 0.0086,-0.00689 0.01786,-0.012959 0.02746,-0.017975 l 0.0024,-0.001 c 0.0091,-0.0046 0.01876,-0.00795 0.02792,-0.010035 l 0.0044,-0.001 c 0.0086,-0.00208 0.01754,-0.00292 0.02599,-0.00355 0.01017,-4.89e-4 0.01976,4.934e-4 0.02938,0.00208 0.0034,4.931e-4 0.0065,0.001 0.01017,0.00149 0.849656,0.2192115 1.704121,0.469447 2.551849,0.7031726 0.03029,0.00857 0.05734,0.019021 0.08082,0.031017 0.02553,0.013586 0.04712,0.02853 0.06509,0.045544 0.02216,0.021027 0.03898,0.045043 0.05052,0.070563 0.01134,0.026524 0.01892,0.055054 0.01892,0.084588 v 4.911e-4 c 4.74e-4,0.025019 -0.0018,0.050038 -0.0094,0.075078 -0.0076,0.025019 -0.01892,0.049035 -0.03274,0.07257 -0.01719,0.029011 -0.04089,0.058064 -0.06888,0.084588 -0.02706,0.026022 -0.05885,0.050539 -0.09387,0.073071 -0.139269,0.085068 -0.27792,0.1751744 -0.416144,0.2622496 l 0.532225,0.4739533 c 0.0193,0.017557 0.03463,0.038041 0.04523,0.060552 l 0.0014,0.00397 c 0.0094,0.022532 0.01701,0.046045 0.01892,0.070563 0.0018,0.024517 -4.74e-4,0.050038 -0.0076,0.075078 -0.0076,0.023535 -0.01701,0.046547 -0.03332,0.067052 -0.08138,0.1040885 -0.217725,0.2862735 -0.307785,0.3728575 z M 36.95691,9.0269633 37.214599,8.712663 36.588435,8.1551312 l -0.004,-0.00355 c -0.004,-0.00292 -0.0056,-0.00649 -0.0094,-0.00941 -0.004,-0.0046 -0.0076,-0.00941 -0.0094,-0.01505 -0.01506,-0.027026 -0.0193,-0.058064 -0.0133,-0.086594 0.0076,-0.02853 0.02403,-0.054553 0.05015,-0.070563 0.181107,-0.1036076 0.367999,-0.2332237 0.546681,-0.3448309 0.02062,-0.012959 0.03898,-0.027527 0.05451,-0.042033 0.01507,-0.014004 0.02649,-0.028029 0.03463,-0.041531 0.004,-0.00543 0.0056,-0.010035 0.0076,-0.01463 -0.004,-0.00292 -0.0076,-0.00543 -0.01507,-0.00857 -0.0094,-0.0046 -0.02119,-0.00857 -0.03521,-0.01254 l -2.394824,-0.6596308 1.00571,2.3537481 c 0.0059,0.012959 0.01152,0.024539 0.01787,0.034048 l 0.0014,0.00251 c 0.0035,0.0046 0.0064,0.00857 0.0086,0.010867 0.004,-0.00208 0.0077,-0.00543 0.01259,-0.010035 0.01152,-0.010661 0.02312,-0.025019 0.0337,-0.042033 0.01152,-0.017975 0.02217,-0.039524 0.03131,-0.063561 l 0.240824,-0.6145862 0.0018,-0.00501 c 0.0018,-0.00397 0.004,-0.00795 0.0056,-0.011496 l 0.0014,-0.00251 c 0.0018,-0.00397 0.0056,-0.00795 0.0094,-0.012123 0.01969,-0.024015 0.04712,-0.03804 0.07512,-0.040047 0.028,-0.00251 0.05676,0.00649 0.08042,0.027026 z M 34.001898,9.8022521 C 33.608841,9.4594245 33.293833,9.1130928 33.060711,8.7617574 h -0.768736 c 0.07323,0.1040885 0.155093,0.2006951 0.243239,0.2927783 0.115116,0.1195975 0.238423,0.2252165 0.373289,0.3183048 0.133421,0.093575 0.278399,0.174652 0.434942,0.2442349 0.0014,0.00149 0.0035,0.00149 0.0047,0.00355 0.151745,0.065568 0.308264,0.117612 0.471548,0.1506361 0.06021,0.012123 0.12185,0.022532 0.183041,0.031038 z M 32.132081,8.509016 h 0.773071 C 32.690329,8.1176438 32.573766,7.7197653 32.560279,7.3178798 h -0.762954 c 0.0065,0.1386179 0.02167,0.2717617 0.04671,0.403384 0.03324,0.1711614 0.08143,0.3358204 0.148378,0.4949739 0.04144,0.1021035 0.08813,0.1991902 0.139676,0.2927783 z M 31.797305,7.0651403 h 0.768252 c 0.02842,-0.3948772 0.155094,-0.791255 0.380035,-1.191136 h -0.81353 c -0.05154,0.093575 -0.09826,0.1901816 -0.140172,0.2927781 -0.0014,0.00149 -0.0014,0.00355 -0.0035,0.00501 -0.0631,0.1576382 -0.113166,0.3203053 -0.144974,0.4899679 -0.02456,0.1316161 -0.04142,0.2647516 -0.04623,0.4033863 z m 0.493223,-1.4438797 h 0.811603 C 33.333814,5.274931 33.638705,4.9270988 34.018735,4.577266 33.950355,4.585836 33.883861,4.596287 33.818847,4.610311 33.654113,4.64484 33.495648,4.69538 33.342483,4.7644588 33.187371,4.8335178 33.042405,4.9150949 32.90754,5.0086914 32.772666,5.1022664 32.649368,5.2078816 32.53425,5.3269963 32.44612,5.4185853 32.3642,5.5156731 32.291009,5.6197724 Z M 34.638157,4.577266 c 0.381479,0.3498328 0.686369,0.697665 0.916606,1.0439946 h 0.811595 C 36.293131,5.5171721 36.211377,5.4205656 36.123123,5.3284846 36.008063,5.2088869 35.884703,5.103268 35.74984,5.0096779 35.616419,4.9161028 35.471436,4.835026 35.314892,4.7654453 c -0.0014,-0.00149 -0.0035,-0.00149 -0.0049,-0.00355 -0.151688,-0.065568 -0.308209,-0.117612 -0.471493,-0.1506362 -0.06649,-0.014003 -0.133421,-0.024015 -0.199888,-0.033044 v -0.00101 z m -0.188334,0.164661 v 0.8793378 h 0.806304 C 35.044676,5.3304891 34.77639,5.0377087 34.449823,4.741927 Z m -0.24324,4.9096773 V 8.7617574 h -0.848212 c 0.218195,0.2977819 0.501413,0.5955681 0.848212,0.8898469 z m 0,-1.1425905 V 7.3178631 h -1.403077 c 0.01488,0.399883 0.144975,0.7962589 0.384849,1.1911361 z m 0,-1.4438755 V 5.8740022 H 33.23025 c -0.249983,0.403384 -0.389667,0.7997619 -0.421454,1.1911361 z m 0,-1.4438777 V 4.7419208 c -0.326567,0.2962855 -0.594856,0.588564 -0.806307,0.8793398 z"
       id="path1"
       style="fill:#3663de;fill-opacity:0.827338;stroke:none;stroke-width:0.0492297;stroke-dasharray:none" />
  </g>
</svg>
