<?xml version="1.0" encoding="UTF-8" standalone="no"?>
<!-- Created with Inkscape (http://www.inkscape.org/) -->

<svg
   width="28.431mm"
   height="8.1040001mm"
   viewBox="0 0 28.431 8.1040001"
   version="1.1"
   id="svg1"
   inkscape:version="1.4 (86a8ad7, 2024-10-11)"
   sodipodi:docname="logo.svg"
   xmlns:inkscape="http://www.inkscape.org/namespaces/inkscape"
   xmlns:sodipodi="http://sodipodi.sourceforge.net/DTD/sodipodi-0.dtd"
   xmlns="http://www.w3.org/2000/svg"
   xmlns:svg="http://www.w3.org/2000/svg">
  <sodipodi:namedview
     id="namedview1"
     pagecolor="#ffffff"
     bordercolor="#000000"
     borderopacity="0.25"
     inkscape:showpageshadow="2"
     inkscape:pageopacity="0.0"
     inkscape:pagecheckerboard="0"
     inkscape:deskcolor="#d1d1d1"
     inkscape:document-units="mm"
     inkscape:clip-to-page="true"
     inkscape:zoom="4"
     inkscape:cx="24.25"
     inkscape:cy="18.125"
     inkscape:window-width="1920"
     inkscape:window-height="1137"
     inkscape:window-x="1912"
     inkscape:window-y="-8"
     inkscape:window-maximized="1"
     inkscape:current-layer="layer1" />
  <defs
     id="defs1">
    <rect
       x="136.75"
       y="165"
       width="82.125"
       height="17.625"
       id="rect25" />
  </defs>
  <g
     inkscape:label="Warstwa 1"
     inkscape:groupmode="layer"
     id="layer1"
     transform="translate(-2.2148654,-1.7440143)">
    <text
       xml:space="preserve"
       transform="matrix(0.33150769,0,0,0.48447071,-43.173958,-77.689546)"
       id="text25"
       style="font-style:normal;font-variant:normal;font-weight:normal;font-stretch:normal;font-size:12px;font-family:'Noto Sans';-inkscape-font-specification:'Noto Sans, Normal';font-variant-ligatures:normal;font-variant-caps:normal;font-variant-numeric:normal;font-variant-east-asian:normal;text-align:start;writing-mode:lr-tb;direction:ltr;white-space:pre;shape-inside:url(#rect25);display:inline;fill:#3663de;fill-opacity:0.827338;fill-rule:evenodd;stroke:none;stroke-width:0.245669;stroke-dasharray:none;stroke-opacity:1"><tspan
         x="136.75"
         y="175.9185"
         id="tspan2">PIĘKNYSOFT</tspan></text>
    <path
       d="m 28.427877,7.4249448 c -0.154906,0.1758193 -0.333322,0.3503149 -0.535287,0.523503 0.05477,-0.00751 0.109552,-0.016663 0.163015,-0.027191 0.146342,-0.030249 0.287114,-0.074525 0.42318,-0.1350415 0.03511,-0.015381 0.06933,-0.031568 0.103113,-0.04823 0.02525,0.033325 0.05349,0.062275 0.08388,0.086811 0.03295,0.026734 0.06805,0.047791 0.104813,0.063575 -0.0676,0.037281 -0.136912,0.071027 -0.207952,0.1025948 -0.151065,0.066651 -0.306367,0.1153025 -0.466397,0.148628 -0.160021,0.033326 -0.325624,0.049988 -0.495925,0.049988 -0.170298,0 -0.334607,-0.016663 -0.495921,-0.049988 -0.15832,-0.032007 -0.310646,-0.080237 -0.460406,-0.1455518 -0.0013,0 -0.0042,-0.00131 -0.0058,-0.00311 C 26.490063,7.9256143 26.349297,7.8466769 26.217934,7.7572364 26.086133,7.6677886 25.964625,7.5647616 25.853802,7.4507647 25.741266,7.3372017 25.641997,7.2126889 25.554709,7.0776475 25.465709,6.942606 25.390394,6.7983598 25.326643,6.6470969 25.261611,6.4923348 25.214101,6.3331708 25.181592,6.169193 c -0.03123,-0.1635329 -0.04748,-0.3336577 -0.04748,-0.5081587 0,-0.174501 0.01636,-0.3428624 0.0488,-0.5081586 0.03123,-0.1622146 0.0783,-0.3183078 0.142076,-0.4717644 0,-0.00131 0.0013,-0.00439 0.0031,-0.00604 0.06374,-0.1530042 0.140785,-0.2959504 0.228064,-0.4305524 0.08729,-0.1350414 0.187843,-0.2595597 0.299096,-0.3731154 0.110812,-0.1153025 0.232342,-0.2170313 0.364132,-0.3064736 0.131812,-0.091187 0.272137,-0.1683669 0.420184,-0.2336922 0.151065,-0.066651 0.306369,-0.1153025 0.466399,-0.1486279 0.159611,-0.032886 0.32562,-0.049531 0.495494,-0.049531 0.170299,0 0.334608,0.016663 0.495923,0.049988 0.15832,0.032007 0.310648,0.080237 0.460408,0.1455518 0.0013,0 0.0043,0.00131 0.0058,0.00311 0.148058,0.065314 0.288826,0.1442518 0.420187,0.2336904 0.131812,0.089448 0.253314,0.1924766 0.364135,0.3064717 0.112637,0.113563 0.211807,0.2380758 0.299091,0.3731173 0.08893,0.1350414 0.164248,0.2792876 0.228063,0.4305524 0.06505,0.154762 0.112464,0.313926 0.145083,0.4779039 0.01832,0.092945 0.03159,0.1876554 0.03984,0.2841125 l -0.223794,-0.060938 c -0.0068,-0.060517 -0.01527,-0.1201365 -0.02739,-0.1793167 -0.0296,-0.1499464 -0.07279,-0.2941963 -0.131812,-0.4336232 -0.03682,-0.089448 -0.07835,-0.174501 -0.12457,-0.256489 v 0 h -0.722235 c 0.128364,0.2249214 0.2208,0.4485299 0.27685,0.6716971 L 28.863973,5.1127148 C 28.800644,4.9127839 28.705223,4.7111006 28.576859,4.5072237 H 27.70953 v 0.4116979 c -0.01558,0.00934 -0.03081,0.02016 -0.04578,0.032447 v 0 c -0.01212,0.00952 -0.02353,0.02016 -0.03424,0.031128 -0.01448,0.015381 -0.02824,0.031568 -0.0398,0.049109 -0.01883,0.02807 -0.0338,0.059198 -0.04535,0.092524 -0.01165,0.033747 -0.01839,0.067512 -0.02097,0.1003976 -0.0022,0.02807 -0.0013,0.057001 0.0031,0.085493 0.0035,0.023676 0.0085,0.046912 0.01636,0.069727 l 0.0022,0.00604 c 0.0016,0.00476 0.0035,0.00952 0.0052,0.014099 0.0025,0.00751 0.0047,0.011902 0.0057,0.014099 l 8.6e-4,-4.303e-4 0.155331,0.3582087 h -0.0025 v 1.0434977 h 0.454416 l 0.09584,0.2214149 h -0.54981 v 0.7795544 c 0.241758,-0.2034392 0.449283,-0.408629 0.622148,-0.6142619 z m 1.632819,0.00348 c -0.01527,0.014832 -0.0316,0.026294 -0.04959,0.034644 -0.01883,0.00879 -0.03899,0.014099 -0.05902,0.015747 -0.02185,0.00182 -0.04405,-4.321e-4 -0.06539,-0.00751 -0.02051,-0.00659 -0.04017,-0.017578 -0.05784,-0.032447 L 29.354332,7.026282 29.191269,7.4362257 c -0.01338,0.034204 -0.02991,0.065772 -0.04841,0.094264 -0.01883,0.028949 -0.03984,0.053943 -0.06169,0.073646 -0.01749,0.015747 -0.03682,0.02937 -0.05689,0.039459 -0.0201,0.010071 -0.04065,0.016663 -0.06206,0.019739 -0.02481,0.00348 -0.04962,0.00182 -0.07361,-0.00531 -0.02309,-0.00696 -0.04535,-0.018421 -0.06673,-0.035523 -0.01713,-0.01355 -0.03295,-0.031128 -0.04792,-0.052167 -0.0137,-0.019281 -0.0261,-0.042096 -0.03764,-0.068391 -0.308935,-0.7133484 -0.677348,-1.481065 -0.952908,-2.1992382 -0.0035,-0.00952 -0.0058,-0.019281 -0.0074,-0.02937 -0.0013,-0.010071 -0.0016,-0.02016 -8.56e-4,-0.030249 8.56e-4,-0.011902 0.0035,-0.023236 0.0074,-0.034644 0.0039,-0.010987 0.009,-0.021918 0.01559,-0.031568 0.0035,-0.00476 0.0069,-0.00952 0.01118,-0.01355 0.0035,-0.00348 0.0074,-0.00696 0.01165,-0.010071 0.0077,-0.00604 0.01587,-0.011353 0.02439,-0.015747 l 0.0022,-8.771e-4 c 0.008,-0.00403 0.01666,-0.00696 0.02481,-0.00879 l 0.0039,-8.789e-4 c 0.0077,-0.00182 0.01558,-0.00256 0.02309,-0.00311 0.009,-4.284e-4 0.01755,4.322e-4 0.0261,0.00182 0.003,4.321e-4 0.0058,8.789e-4 0.009,0.00131 0.754795,0.1920408 1.513862,0.4112602 2.266946,0.616016 0.0269,0.00751 0.05093,0.016663 0.07179,0.027173 0.02268,0.011902 0.04186,0.024994 0.05782,0.039899 0.01968,0.018421 0.03463,0.03946 0.04488,0.061817 0.01008,0.023236 0.01681,0.04823 0.01681,0.074103 v 4.303e-4 c 4.2e-4,0.021918 -0.0016,0.043836 -0.0083,0.065772 -0.0068,0.021918 -0.01681,0.042957 -0.02908,0.063575 -0.01527,0.025415 -0.03632,0.050867 -0.06119,0.074103 -0.02404,0.022797 -0.05228,0.044275 -0.08339,0.064014 -0.12372,0.074524 -0.246892,0.153462 -0.369684,0.2297444 l 0.472805,0.415208 c 0.01714,0.015381 0.03076,0.033326 0.04018,0.053046 l 0.0013,0.00348 c 0.0083,0.019739 0.01511,0.040338 0.01681,0.061817 0.0016,0.021478 -4.21e-4,0.043836 -0.0068,0.065772 -0.0068,0.020618 -0.01511,0.040778 -0.0296,0.058741 -0.07229,0.091187 -0.193417,0.2507907 -0.273422,0.3266428 z m -0.124067,-0.1591567 0.228919,-0.2753435 -0.556255,-0.4884271 -0.0035,-0.00311 c -0.0035,-0.00256 -0.005,-0.00568 -0.0083,-0.00824 -0.0035,-0.00403 -0.0068,-0.00824 -0.0083,-0.013184 -0.01338,-0.023676 -0.01714,-0.050867 -0.01181,-0.075861 0.0068,-0.024994 0.02135,-0.047791 0.04455,-0.061817 0.160888,-0.090766 0.326914,-0.2043163 0.485647,-0.30209 0.01832,-0.011353 0.03463,-0.024115 0.04842,-0.036823 0.01338,-0.012268 0.02353,-0.024555 0.03076,-0.036383 0.0035,-0.00476 0.005,-0.00879 0.0068,-0.012817 -0.0035,-0.00256 -0.0068,-0.00476 -0.01338,-0.00751 -0.0083,-0.00403 -0.01883,-0.00751 -0.03128,-0.010986 l -2.127453,-0.5778712 0.893428,2.0620069 c 0.0052,0.011353 0.01023,0.021497 0.01587,0.029828 l 0.0013,0.0022 c 0.0031,0.00403 0.0057,0.00751 0.0077,0.00952 0.0035,-0.00182 0.0069,-0.00476 0.01118,-0.00879 0.01023,-0.00934 0.02054,-0.021918 0.02994,-0.036823 0.01023,-0.015747 0.01969,-0.034625 0.02782,-0.055683 l 0.213937,-0.5384098 0.0016,-0.00439 c 0.0016,-0.00348 0.0035,-0.00696 0.005,-0.010071 l 0.0013,-0.0022 c 0.0016,-0.00348 0.005,-0.00696 0.0083,-0.01062 0.01749,-0.021039 0.04186,-0.033325 0.06673,-0.035083 0.02487,-0.0022 0.05042,0.00568 0.07144,0.023676 z M 27.311532,7.9484634 C 26.962358,7.6481284 26.682519,7.3447237 26.475424,7.0369354 h -0.68291 c 0.06505,0.091187 0.137778,0.1758194 0.216083,0.2564891 0.102263,0.1047738 0.211803,0.1973015 0.331612,0.2788518 0.118525,0.081977 0.247317,0.1530043 0.386383,0.2139625 0.0013,0.00131 0.0031,0.00131 0.0042,0.00311 0.134803,0.057441 0.273847,0.1030343 0.418901,0.1319652 0.05349,0.01062 0.108246,0.019739 0.162606,0.027191 z M 25.650471,6.8155206 h 0.686761 C 26.146394,6.4726581 26.042844,6.1240956 26.030863,5.7720228 h -0.677774 c 0.0058,0.1214366 0.01925,0.2380776 0.0415,0.3533856 0.02953,0.1499464 0.07234,0.2941963 0.131812,0.4336231 0.03681,0.089448 0.07829,0.1745011 0.124082,0.2564891 z M 25.353072,5.5506098 h 0.68248 c 0.02525,-0.3459332 0.137778,-0.693181 0.337606,-1.0434977 h -0.722703 c -0.04578,0.081977 -0.08729,0.166609 -0.124523,0.256489 -0.0013,0.00131 -0.0013,0.00311 -0.0031,0.00439 -0.05606,0.1380994 -0.100532,0.2806043 -0.128789,0.4292377 -0.02182,0.1153025 -0.03679,0.2319362 -0.04107,0.3533875 z m 0.438157,-1.2649144 h 0.720991 c 0.205816,-0.3034029 0.476667,-0.6081223 0.814269,-0.9145941 -0.06075,0.00751 -0.119816,0.016663 -0.177572,0.028949 -0.146342,0.030249 -0.287115,0.074525 -0.42318,0.1350415 -0.137794,0.060499 -0.266575,0.1319652 -0.386383,0.2139606 -0.119816,0.081977 -0.229349,0.174501 -0.331614,0.2788518 -0.07829,0.080237 -0.151065,0.1652908 -0.216084,0.2564872 z m 2.085526,-0.9145941 c 0.338888,0.3064718 0.609739,0.6111912 0.814271,0.9145941 H 29.41201 C 29.346957,4.1945084 29.274332,4.109876 29.195931,4.0292082 29.093717,3.9244343 28.984129,3.8319067 28.864323,3.7499168 28.745799,3.6679398 28.617002,3.5969126 28.477936,3.5359562 c -0.0013,-0.00131 -0.0031,-0.00131 -0.0043,-0.00311 C 28.338883,3.4754052 28.199837,3.4298119 28.054783,3.400881 27.995717,3.388613 27.936258,3.379842 27.877211,3.371932 V 3.3710512 Z M 27.709447,3.515353 v 0.770346 h 0.716285 C 28.237888,4.0309642 27.999555,3.7744733 27.709447,3.515353 Z M 27.493364,7.816488 V 7.0369354 h -0.753512 c 0.193834,0.2608726 0.445432,0.5217489 0.753512,0.7795526 z m 0,-1.0009693 V 5.7720082 h -1.24643 c 0.01322,0.3503185 0.12879,0.6975646 0.341883,1.0434977 z m 0,-1.2649107 V 4.5071102 H 26.626035 C 26.403961,4.8604958 26.279872,5.2077437 26.251634,5.550608 Z m 0,-1.2649126 V 3.5153475 c -0.290107,0.2595616 -0.528442,0.515613 -0.716286,0.7703479 z"
       id="path1"
       style="fill:#3663de;fill-opacity:0.827338;stroke:none;stroke-width:0.0434296;stroke-dasharray:none" />
  </g>
</svg>
