<?xml version="1.0" encoding="UTF-8" standalone="no"?>
<!-- Created with Inkscape (http://www.inkscape.org/) -->

<svg
   width="25.431mm"
   height="5.1040001mm"
   viewBox="0 0 25.431 5.1040001"
   version="1.1"
   id="svg1"
   inkscape:version="1.4 (86a8ad7, 2024-10-11)"
   sodipodi:docname="logo.svg"
   xmlns:inkscape="http://www.inkscape.org/namespaces/inkscape"
   xmlns:sodipodi="http://sodipodi.sourceforge.net/DTD/sodipodi-0.dtd"
   xmlns="http://www.w3.org/2000/svg"
   xmlns:svg="http://www.w3.org/2000/svg">
  <sodipodi:namedview
     id="namedview1"
     pagecolor="#ffffff"
     bordercolor="#000000"
     borderopacity="0.25"
     inkscape:showpageshadow="2"
     inkscape:pageopacity="0.0"
     inkscape:pagecheckerboard="0"
     inkscape:deskcolor="#d1d1d1"
     inkscape:document-units="mm"
     inkscape:clip-to-page="true"
     inkscape:zoom="4"
     inkscape:cx="24.25"
     inkscape:cy="18.125"
     inkscape:window-width="1920"
     inkscape:window-height="1137"
     inkscape:window-x="1912"
     inkscape:window-y="-8"
     inkscape:window-maximized="1"
     inkscape:current-layer="layer1" />
  <defs
     id="defs1">
    <rect
       x="136.75"
       y="165"
       width="82.125"
       height="17.625"
       id="rect25" />
  </defs>
  <g
     inkscape:label="Warstwa 1"
     inkscape:groupmode="layer"
     id="layer1"
     transform="translate(-2.2148654,-1.7440143)">
    <text
       xml:space="preserve"
       transform="matrix(0.26458333,0,0,0.26458333,-32.224359,-41.403347)"
       id="text25"
       style="font-style:normal;font-variant:normal;font-weight:normal;font-stretch:normal;font-size:12px;font-family:'Noto Sans';-inkscape-font-specification:'Noto Sans, Normal';font-variant-ligatures:normal;font-variant-caps:normal;font-variant-numeric:normal;font-variant-east-asian:normal;text-align:start;writing-mode:lr-tb;direction:ltr;white-space:pre;shape-inside:url(#rect25);fill:#3663de;fill-opacity:0.827338;fill-rule:evenodd;stroke:none;stroke-width:0.245669;stroke-dasharray:none;stroke-opacity:1"><tspan
         x="136.75"
         y="175.9185"
         id="tspan2">PIĘKNYSOFT</tspan></text>
    <path
       d="m 24.527622,5.0801138 c -0.09214,0.09602 -0.198272,0.191317 -0.318406,0.2859 0.03258,-0.0041 0.06516,-0.0091 0.09697,-0.01485 0.08705,-0.01652 0.170785,-0.0407 0.251722,-0.07375 0.02088,-0.0084 0.04123,-0.01724 0.06134,-0.02634 0.01502,0.0182 0.03182,0.03401 0.04989,0.04741 0.0196,0.0146 0.04048,0.0261 0.06235,0.03472 -0.04021,0.02036 -0.08144,0.03879 -0.123697,0.05603 -0.08985,0.0364 -0.182238,0.06297 -0.277429,0.08117 -0.09519,0.0182 -0.193691,0.0273 -0.294992,0.0273 -0.101299,0 -0.199036,-0.0091 -0.294991,-0.0273 -0.09417,-0.01748 -0.184782,-0.04382 -0.273864,-0.07949 -7.6e-4,0 -0.0025,-7.15e-4 -0.0035,-0.0017 -0.08807,-0.03567 -0.171802,-0.07878 -0.249941,-0.127626 -0.0784,-0.04885 -0.150677,-0.105116 -0.216598,-0.167373 -0.06694,-0.06202 -0.125989,-0.13002 -0.177911,-0.20377 -0.05294,-0.07375 -0.09774,-0.152527 -0.135661,-0.235136 -0.03869,-0.08452 -0.06694,-0.171444 -0.08628,-0.260997 -0.01857,-0.08931 -0.02825,-0.18222 -0.02825,-0.27752 0,-0.0953 0.0097,-0.187247 0.02902,-0.27752 0.01857,-0.08859 0.04658,-0.173837 0.08451,-0.257644 0,-7.15e-4 7.59e-4,-0.0024 0.0018,-0.0033 0.03792,-0.08356 0.08374,-0.161627 0.13566,-0.235137 0.05193,-0.07375 0.111735,-0.141753 0.177912,-0.203769 0.06592,-0.06297 0.138205,-0.118527 0.216598,-0.167374 0.0784,-0.0498 0.161876,-0.09195 0.24994,-0.127626 0.08985,-0.0364 0.182238,-0.06297 0.277429,-0.08117 0.09494,-0.01796 0.193691,-0.02705 0.294737,-0.02705 0.1013,0 0.199036,0.0091 0.294991,0.0273 0.09417,0.01748 0.184784,0.04382 0.273866,0.07949 7.6e-4,0 0.0025,7.15e-4 0.0035,0.0017 0.08807,0.03567 0.171802,0.07878 0.249941,0.127625 0.0784,0.04885 0.150679,0.105117 0.216599,0.167373 0.067,0.06202 0.12599,0.13002 0.17791,0.20377 0.0529,0.07375 0.0977,0.152527 0.13566,0.235137 0.0387,0.08452 0.0669,0.171444 0.0863,0.260997 0.0109,0.05076 0.0188,0.102484 0.0237,0.155162 l -0.13312,-0.03328 c -0.004,-0.03305 -0.009,-0.06561 -0.0163,-0.09793 -0.0176,-0.08189 -0.0433,-0.160669 -0.0784,-0.236814 -0.0219,-0.04885 -0.0466,-0.0953 -0.0741,-0.140076 v 0 h -0.429609 c 0.07636,0.122836 0.131339,0.244955 0.164679,0.366833 l -0.144571,-0.03615 c -0.03767,-0.109188 -0.09443,-0.219333 -0.170785,-0.330676 h -0.515916 v 0.22484 c -0.0092,0.0051 -0.01832,0.01101 -0.02723,0.01772 v 0 c -0.0072,0.0052 -0.014,0.01101 -0.02036,0.017 -0.0087,0.0084 -0.0168,0.01724 -0.02367,0.02682 -0.0112,0.01533 -0.0201,0.03233 -0.02698,0.05053 -0.0069,0.01843 -0.01094,0.03687 -0.01247,0.05483 -0.0013,0.01533 -7.6e-4,0.03113 0.0018,0.04669 0.002,0.01293 0.0051,0.02562 0.0097,0.03808 l 0.0013,0.0033 c 0.001,0.0026 0.002,0.0052 0.0031,0.0077 0.0015,0.0041 0.0028,0.0065 0.0034,0.0077 l 5.1e-4,-2.35e-4 0.09239,0.195628 h -0.0015 v 0.569884 h 0.270302 l 0.05701,0.120921 h -0.327061 v 0.425737 c 0.143805,-0.111104 0.267248,-0.223164 0.370075,-0.335466 z m 0.971255,0.0019 c -0.009,0.0081 -0.0188,0.01436 -0.0295,0.01892 -0.0112,0.0048 -0.0232,0.0077 -0.0351,0.0086 -0.013,9.93e-4 -0.0262,-2.36e-4 -0.0389,-0.0041 -0.0122,-0.0036 -0.0239,-0.0096 -0.0344,-0.01772 l -0.28226,-0.22532 -0.097,0.223882 c -0.008,0.01868 -0.0178,0.03592 -0.0288,0.05148 -0.0112,0.01581 -0.0237,0.02946 -0.0367,0.04022 -0.0104,0.0086 -0.0219,0.01604 -0.03384,0.02155 -0.01196,0.0055 -0.02418,0.0091 -0.03691,0.01078 -0.01476,0.0019 -0.02952,9.93e-4 -0.04378,-0.0029 -0.01374,-0.0038 -0.02698,-0.01006 -0.0397,-0.0194 -0.01019,-0.0074 -0.0196,-0.017 -0.02851,-0.02849 -0.0082,-0.01053 -0.01553,-0.02299 -0.02239,-0.03735 -0.183765,-0.38958 -0.402909,-0.808852 -0.566821,-1.201067 -0.002,-0.0052 -0.0035,-0.01053 -0.0044,-0.01604 -7.6e-4,-0.0055 -0.001,-0.01101 -5.1e-4,-0.01652 5.1e-4,-0.0065 0.002,-0.01269 0.0044,-0.01892 0.0023,-0.006 0.0054,-0.01197 0.0092,-0.01724 0.002,-0.0026 0.0041,-0.0052 0.0066,-0.0074 0.002,-0.0019 0.0044,-0.0038 0.0069,-0.0055 0.0046,-0.0033 0.0094,-0.0062 0.01451,-0.0086 l 0.0013,-4.79e-4 c 0.0048,-0.0022 0.0099,-0.0038 0.01476,-0.0048 l 0.0023,-4.8e-4 c 0.0046,-9.93e-4 0.0092,-0.0014 0.01374,-0.0017 0.0054,-2.34e-4 0.01044,2.36e-4 0.01553,9.93e-4 0.0018,2.36e-4 0.0035,4.8e-4 0.0054,7.15e-4 0.448977,0.104879 0.900496,0.224601 1.348456,0.336424 0.016,0.0041 0.0303,0.0091 0.0427,0.01484 0.0135,0.0065 0.0249,0.01365 0.0344,0.02179 0.0117,0.01006 0.0206,0.02155 0.0267,0.03376 0.006,0.01269 0.01,0.02634 0.01,0.04047 v 2.35e-4 c 2.5e-4,0.01197 -0.001,0.02394 -0.005,0.03592 -0.004,0.01197 -0.01,0.02346 -0.0173,0.03472 -0.009,0.01388 -0.0216,0.02778 -0.0364,0.04047 -0.0143,0.01245 -0.0311,0.02418 -0.0496,0.03496 -0.0736,0.0407 -0.14686,0.08381 -0.2199,0.12547 l 0.28124,0.226757 c 0.0102,0.0084 0.0183,0.0182 0.0239,0.02897 l 7.7e-4,0.0019 c 0.005,0.01078 0.009,0.02203 0.01,0.03376 10e-4,0.01173 -2.5e-4,0.02394 -0.004,0.03592 -0.004,0.01126 -0.009,0.02227 -0.0176,0.03208 -0.043,0.0498 -0.11505,0.136964 -0.16264,0.178389 z m -0.0738,-0.08692 0.13617,-0.150373 -0.33088,-0.266744 -0.002,-0.0017 c -0.002,-0.0014 -0.003,-0.0031 -0.005,-0.0045 -0.002,-0.0022 -0.004,-0.0045 -0.005,-0.0072 -0.008,-0.01293 -0.0102,-0.02778 -0.007,-0.04143 0.004,-0.01365 0.0127,-0.0261 0.0265,-0.03376 0.0957,-0.04957 0.19446,-0.111583 0.28888,-0.16498 0.0109,-0.0062 0.0206,-0.01317 0.0288,-0.02011 0.008,-0.0067 0.014,-0.01341 0.0183,-0.01987 0.002,-0.0026 0.003,-0.0048 0.004,-0.007 -0.002,-0.0014 -0.004,-0.0026 -0.008,-0.0041 -0.005,-0.0022 -0.0112,-0.0041 -0.0186,-0.006 l -1.26548,-0.315592 0.531442,1.126121 c 0.0031,0.0062 0.0061,0.01174 0.0094,0.01629 l 7.61e-4,0.0012 c 0.0018,0.0022 0.0034,0.0041 0.0046,0.0052 0.002,-9.93e-4 0.0041,-0.0026 0.0066,-0.0048 0.0061,-0.0051 0.01222,-0.01197 0.01782,-0.02011 0.0061,-0.0086 0.01171,-0.01891 0.01655,-0.03041 l 0.127257,-0.294041 0.001,-0.0024 c 10e-4,-0.0019 0.002,-0.0038 0.003,-0.0055 l 7.6e-4,-0.0012 c 10e-4,-0.0019 0.003,-0.0038 0.005,-0.0058 0.0104,-0.01149 0.0249,-0.0182 0.0397,-0.01916 0.0148,-0.0012 0.03,0.0031 0.0425,0.01293 z m -1.561494,0.370928 c -0.207701,-0.164021 -0.374158,-0.329719 -0.497346,-0.497811 h -0.406218 c 0.0387,0.0498 0.08195,0.09602 0.128534,0.140076 0.06083,0.05722 0.125988,0.107752 0.197254,0.152289 0.0705,0.04477 0.147113,0.08356 0.229834,0.116851 7.6e-4,7.15e-4 0.0018,7.15e-4 0.0025,0.0017 0.08018,0.03137 0.162894,0.05627 0.249177,0.07207 0.03182,0.0058 0.06439,0.01078 0.09672,0.01485 z m -0.988055,-0.618732 h 0.408508 c -0.113517,-0.187247 -0.175111,-0.377607 -0.182238,-0.569884 h -0.403163 c 0.0035,0.06632 0.01145,0.130021 0.02468,0.192994 0.01757,0.08189 0.04302,0.160669 0.0784,0.236814 0.02189,0.04885 0.04657,0.0953 0.07381,0.140076 z m -0.176903,-0.690804 h 0.405962 c 0.01502,-0.188924 0.08195,-0.378566 0.200819,-0.569884 h -0.429888 c -0.02723,0.04477 -0.05193,0.09099 -0.07407,0.140076 -7.6e-4,7.15e-4 -7.6e-4,0.0017 -0.0018,0.0024 -0.03334,0.07542 -0.0598,0.153246 -0.07661,0.234419 -0.01298,0.06297 -0.02188,0.126667 -0.02443,0.192995 z m 0.26063,-0.690806 h 0.42887 c 0.122426,-0.165697 0.283537,-0.332113 0.484355,-0.499486 -0.03614,0.0041 -0.07127,0.0091 -0.105626,0.01581 -0.08705,0.01652 -0.170785,0.0407 -0.251722,0.07375 -0.08196,0.03304 -0.158568,0.07207 -0.229834,0.11685 -0.07127,0.04477 -0.136424,0.0953 -0.197254,0.152289 -0.04657,0.04382 -0.08985,0.09027 -0.128535,0.140075 z m 1.240541,-0.499486 c 0.201582,0.167373 0.362693,0.333789 0.484356,0.499486 h 0.428865 c -0.0387,-0.0498 -0.0819,-0.09602 -0.12853,-0.140075 -0.0608,-0.05722 -0.125987,-0.107752 -0.197253,-0.152529 -0.0705,-0.04477 -0.147114,-0.08356 -0.229835,-0.11685 -7.6e-4,-7.15e-4 -0.0018,-7.15e-4 -0.0025,-0.0017 -0.08018,-0.03137 -0.162894,-0.05627 -0.249177,-0.07207 -0.03513,-0.0067 -0.0705,-0.01149 -0.105626,-0.01581 v -4.81e-4 z m -0.09952,0.07878 v 0.420708 h 0.42607 c -0.111736,-0.139118 -0.253504,-0.279195 -0.42607,-0.420708 z m -0.128534,2.348973 v -0.425736 h -0.448214 c 0.115299,0.14247 0.264958,0.284942 0.448214,0.425736 z m 0,-0.546658 v -0.569891 h -0.741418 c 0.0079,0.191319 0.07661,0.38096 0.203363,0.569884 z m 0,-0.690804 v -0.569884 h -0.515916 c -0.132097,0.192994 -0.205909,0.382636 -0.222706,0.569884 z m 0,-0.690805 v -0.420709 c -0.172565,0.141754 -0.314335,0.281591 -0.42607,0.420709 z"
       id="path1"
       style="fill:#3663de;fill-opacity:0.827338;stroke:none;stroke-width:0.0247532;stroke-dasharray:none" />
  </g>
</svg>
